<?xml version="1.0" standalone="no"?>
<!DOCTYPE svg PUBLIC "-//W3C//DTD SVG 20010904//EN"
 "http://www.w3.org/TR/2001/REC-SVG-20010904/DTD/svg10.dtd">
<svg version="1.0" xmlns="http://www.w3.org/2000/svg"
 width="200.000000pt" height="200.000000pt" viewBox="0 0 200.000000 200.000000"
 preserveAspectRatio="xMidYMid meet">

<g transform="translate(0.000000,200.000000) scale(0.100000,-0.100000)"
fill="#000000" stroke="none">
<path d="M336 1873 c-104 -2 -175 -8 -183 -14 -8 -8 -13 -35 -13 -78 0 -38 -5
-72 -12 -79 -9 -9 -9 -40 1 -134 7 -68 15 -131 17 -141 10 -35 63 -50 185 -55
l116 -4 -19 -61 c-10 -33 -20 -77 -22 -99 -3 -32 -10 -43 -35 -59 -37 -23 -40
-39 -6 -39 l25 0 -29 -47 c-60 -97 -64 -180 -16 -310 33 -89 79 -143 156 -184
62 -33 70 -43 43 -53 -26 -10 -57 -6 -97 12 -31 14 -42 27 -60 71 -34 85 -57
96 -187 95 -125 -2 -163 -15 -168 -57 -3 -22 3 -31 31 -47 27 -16 37 -31 46
-67 8 -29 25 -59 47 -81 34 -34 37 -35 92 -29 54 6 62 4 151 -41 83 -42 100
-47 160 -47 51 0 79 6 123 27 l57 27 18 -55 c16 -52 16 -56 -3 -102 l-20 -47
-115 -5 c-125 -5 -161 -19 -179 -66 -15 -38 -13 -104 3 -104 10 0 14 14 14 44
1 24 6 53 12 65 17 31 82 44 187 37 l91 -6 22 49 c25 58 27 103 6 160 -13 39
-13 42 5 54 20 12 27 37 11 37 -5 0 -35 -16 -67 -35 -33 -20 -83 -43 -111 -51
-48 -14 -58 -14 -110 1 -32 9 -90 34 -129 55 -67 35 -74 37 -112 27 -30 -8
-47 -8 -66 1 -32 14 -64 65 -72 113 -5 29 -13 40 -40 52 -37 18 -44 41 -16 55
9 5 60 13 112 16 125 9 155 -5 187 -84 24 -60 40 -75 105 -95 36 -11 51 -11
82 0 36 13 43 12 86 -11 47 -24 53 -25 261 -24 201 0 215 1 263 24 132 60 206
171 226 339 l13 98 41 27 c26 16 60 27 93 30 64 5 130 -28 209 -105 35 -35 62
-53 78 -53 92 0 143 -96 100 -186 -32 -66 -96 -94 -136 -58 -14 13 -21 14 -32
5 -11 -9 -19 -5 -40 19 -33 39 -42 74 -27 106 15 33 16 28 -30 79 -58 63 -79
61 -151 -16 -32 -33 -58 -67 -58 -75 0 -17 12 -18 27 -3 20 20 70 -101 93
-221 22 -114 9 -340 -26 -452 -3 -12 0 -18 9 -18 27 0 52 149 51 310 -1 160
-19 250 -72 361 l-29 59 34 40 c19 22 42 40 52 40 9 0 32 -15 50 -34 30 -31
32 -37 26 -78 -8 -52 6 -87 54 -132 22 -21 34 -27 42 -19 8 8 19 7 39 -3 93
-47 200 120 145 227 -19 36 -70 69 -107 69 -18 0 -43 16 -83 55 -108 104 -211
131 -308 81 l-47 -23 0 28 c0 18 -15 45 -43 78 -31 36 -43 59 -44 83 0 19 -10
64 -22 102 -12 37 -21 88 -21 112 l0 44 83 0 c46 0 87 3 90 7 4 3 34 5 68 4
33 -1 66 2 74 9 9 7 15 8 20 0 7 -11 103 -14 129 -4 14 5 16 33 16 209 0 235
2 230 -87 221 -72 -6 -67 -6 -129 0 -84 9 -94 -1 -94 -99 l0 -82 -27 27 c-22
23 -28 38 -32 100 l-6 73 -63 3 c-36 2 -69 -2 -77 -8 -9 -8 -15 -8 -20 0 -9
14 -128 13 -143 -2 -7 -7 -12 -39 -12 -73 0 -33 -5 -67 -10 -75 -7 -11 -10 -6
-10 20 0 40 -14 60 -42 60 -14 0 -18 8 -18 33 0 18 -5 38 -12 45 -18 18 -125
16 -136 -3 -7 -14 -12 -14 -45 0 -87 36 -185 3 -220 -75 -11 -23 -12 -22 -15
20 -3 40 -24 75 -41 68 -3 -1 -82 -4 -175 -5z m467 -63 c39 -44 39 -117 -1
-161 -37 -42 -110 -51 -159 -20 -71 44 -67 166 7 204 51 26 117 17 153 -23z
m145 -7 c3 -38 6 -43 28 -43 21 0 24 -5 24 -34 0 -28 -4 -35 -22 -38 -19 -2
-24 -10 -26 -45 l-3 -43 -45 0 -44 0 0 126 0 125 43 -3 c42 -3 42 -3 45 -45z
m-428 7 c0 -30 0 -30 -57 -31 -42 0 -52 -3 -38 -9 11 -5 37 -9 58 -9 35 -1 37
-3 37 -32 l0 -32 -66 7 c-52 5 -65 4 -62 -6 3 -9 29 -14 76 -16 l72 -3 0 -29
0 -30 -195 0 -195 0 0 30 0 30 75 0 c59 0 75 3 75 15 0 12 -12 13 -65 8 l-65
-6 0 32 c0 30 2 31 43 32 70 1 92 17 25 18 -58 1 -58 1 -58 31 l0 30 170 0
170 0 0 -30z m672 -40 c2 -47 9 -75 20 -86 15 -15 17 -15 28 7 7 12 15 51 18
86 l5 63 42 0 43 0 4 -70 c3 -59 8 -74 31 -98 18 -18 27 -39 27 -60 0 -18 -2
-32 -5 -32 -12 0 -84 40 -90 50 -3 5 -23 -3 -47 -20 -23 -17 -45 -30 -49 -30
-5 0 -25 14 -44 32 -23 19 -39 27 -43 21 -8 -12 -73 -53 -84 -53 -15 0 -9 80
6 86 21 8 46 78 46 129 l0 45 44 0 44 0 4 -70z m368 -85 l0 -125 -39 0 -38 0
-7 92 c-11 165 -13 158 39 158 l45 0 0 -125z m160 53 c0 -40 -3 -97 -6 -125
l-7 -53 -38 0 -39 0 0 125 0 125 45 0 45 0 0 -72z m-720 -133 c0 -32 5 -47 16
-52 13 -5 12 -9 -6 -25 -18 -17 -26 -19 -46 -9 -29 13 -32 47 -4 54 15 4 20
14 20 41 0 20 5 36 10 36 6 0 10 -20 10 -45z m-404 -33 c-32 -33 -43 -23 -26
27 12 39 12 39 32 19 20 -20 20 -20 -6 -46z m-201 28 c3 -5 35 -10 71 -10 l64
0 0 -31 0 -30 -75 2 c-42 1 -78 -1 -82 -5 -3 -3 16 -6 43 -6 64 0 98 -18 102
-52 2 -20 -4 -31 -24 -44 -38 -26 -244 -26 -291 -1 -67 35 -25 97 66 97 22 0
42 3 44 8 3 4 -29 7 -71 7 -77 0 -77 0 -80 28 l-3 27 70 0 c41 0 71 4 71 10 0
6 20 10 44 10 25 0 48 -4 51 -10z m1202 -42 c-2 -13 -4 -5 -4 17 -1 22 1 32 4
23 2 -10 2 -28 0 -40z m-843 -7 c12 -75 47 -74 61 2 7 37 8 38 49 35 39 -3 41
-5 47 -43 4 -24 15 -45 28 -53 14 -10 21 -25 21 -48 0 -40 -10 -42 -64 -14
-39 19 -39 19 -64 0 -31 -25 -63 -25 -94 0 -25 19 -25 19 -64 0 -53 -28 -64
-26 -64 11 0 21 9 40 25 55 18 16 25 34 25 59 0 35 0 35 44 35 43 0 44 -1 50
-39z m418 19 c42 -25 69 -25 102 1 l26 21 52 -26 52 -26 -185 0 -184 0 50 24
c28 14 51 25 52 25 2 1 17 -8 35 -19z m-542 -17 c0 -14 -15 -30 -37 -42 -17
-9 -23 -21 -23 -45 0 -20 -7 -39 -17 -47 -15 -11 -16 -11 -5 1 6 8 12 30 12
49 0 24 8 43 27 63 26 27 43 36 43 21z m814 -7 c-3 -8 -12 -12 -21 -9 -12 5
-12 7 -1 14 20 13 28 11 22 -5z m116 -58 l0 -43 -42 1 c-43 1 -43 1 -46 43
l-3 41 45 0 46 0 0 -42z m158 -3 l3 -40 -46 -1 -45 0 0 43 0 44 43 -3 c41 -3
42 -4 45 -43z m-310 15 c9 0 12 -11 10 -32 l-3 -33 -192 -3 -193 -2 0 34 0 35
98 3 c53 2 135 2 182 1 47 -2 91 -3 98 -3z m-461 -125 c25 -5 35 -2 43 12 10
15 23 18 83 15 87 -3 107 -12 146 -68 38 -52 59 -109 70 -186 l8 -58 -51 0
c-28 0 -217 9 -421 20 -203 11 -383 20 -400 20 l-30 0 24 19 c15 12 29 39 38
72 14 53 46 113 86 156 19 21 22 22 38 7 16 -14 22 -14 74 1 53 15 60 15 92 0
29 -14 40 -15 66 -4 18 7 36 15 40 19 5 4 21 2 35 -5 15 -7 41 -16 59 -20z
m302 -5 c3 -25 3 -25 -18 -6 -26 23 -27 39 -3 34 9 -2 19 -14 21 -28z m-746
-2 c-11 -13 -28 -36 -36 -53 -19 -36 -21 -30 -6 16 11 34 34 59 53 59 5 0 0
-10 -11 -22z m81 -285 c-15 -35 -16 -99 -2 -111 21 -17 100 -32 117 -22 9 5
13 10 9 11 -5 1 -12 3 -18 4 -5 1 -17 3 -25 4 -11 1 -12 6 -5 27 6 14 10 41
10 60 0 19 4 34 8 34 12 0 31 -44 38 -90 4 -22 10 -40 15 -40 13 0 10 49 -5
93 l-14 37 47 0 c25 0 83 -3 129 -7 l83 -6 -8 -31 c-10 -43 -6 -88 9 -97 7 -5
30 -11 51 -14 35 -6 36 -8 20 -20 -34 -25 -6 -25 77 0 48 14 109 25 142 25 56
0 75 11 42 24 -26 10 -73 7 -136 -10 -36 -9 -76 -13 -97 -9 l-37 6 15 63 c13
57 16 62 38 58 22 -4 25 -11 27 -57 2 -37 21 -25 24 15 l3 40 87 -7 c88 -6
126 -21 137 -54 19 -55 -7 -263 -42 -336 -27 -59 -103 -131 -173 -166 -41 -20
-62 -22 -245 -25 -195 -3 -201 -3 -245 21 -107 57 -220 131 -234 153 -15 22
-14 24 17 47 46 35 127 74 181 88 25 6 44 15 41 19 -5 8 -31 3 -111 -19 -22
-6 -68 -29 -102 -50 -52 -34 -61 -37 -67 -23 -64 158 -61 254 11 349 25 33 26
33 111 33 77 0 84 -2 77 -17z m38 -48 c-4 -54 -16 -71 -29 -39 -6 17 14 94 25
94 4 0 5 -25 4 -55z m393 -15 c0 -50 -3 -60 -17 -60 -21 0 -25 54 -6 95 17 39
23 30 23 -35z"/>
<path d="M692 1768 c-17 -17 -15 -63 4 -79 22 -18 48 0 52 35 6 45 -29 71 -56
44z"/>
<path d="M325 1720 c-3 -6 4 -9 19 -8 13 1 22 6 20 10 -7 11 -32 10 -39 -2z"/>
<path d="M303 1463 c26 -2 67 -2 90 0 23 2 2 3 -48 3 -49 0 -68 -1 -42 -3z"/>
<path d="M797 1283 c-4 -3 -7 -14 -7 -24 0 -9 -9 -19 -20 -22 -25 -7 -26 -27
-1 -34 11 -3 21 -13 24 -24 7 -25 34 -24 42 1 4 11 15 20 27 20 14 0 18 5 14
16 -3 9 -6 18 -6 20 0 2 -7 4 -15 4 -9 0 -20 11 -25 25 -9 25 -21 31 -33 18z"/>
<path d="M835 950 c17 -19 45 -27 45 -14 0 11 -34 33 -49 34 -11 0 -10 -5 4
-20z"/>
<path d="M401 912 c-33 -16 -59 -51 -30 -39 68 28 93 30 173 19 100 -15 158
-16 135 -2 -15 9 -194 40 -226 40 -10 -1 -33 -9 -52 -18z"/>
<path d="M1000 867 c0 -9 9 -22 21 -30 l20 -15 -22 -21 c-34 -31 -100 -10
-135 44 -9 14 -19 25 -23 25 -3 0 -17 -18 -30 -39 -13 -22 -33 -43 -45 -49
-21 -9 -66 1 -66 15 0 4 -9 19 -20 33 -15 19 -20 21 -20 8 0 -29 49 -78 79
-78 23 0 31 -7 45 -39 26 -56 70 -101 101 -101 30 0 62 45 71 102 4 24 13 40
25 43 10 4 27 18 38 32 20 24 23 25 125 21 65 -2 107 1 108 7 2 6 -38 11 -100
13 -97 3 -103 4 -97 22 8 25 -3 26 -20 3 -12 -17 -14 -17 -34 1 -18 16 -21 17
-21 3z m-55 -97 c21 0 19 -36 -5 -87 -27 -61 -51 -58 -95 12 -19 30 -35 57
-35 61 0 4 12 22 26 41 l26 34 34 -31 c19 -16 41 -30 49 -30z"/>
</g>
</svg>
